<?xml version="1.0" standalone="no"?>
<!DOCTYPE svg PUBLIC "-//W3C//DTD SVG 20010904//EN"
 "http://www.w3.org/TR/2001/REC-SVG-20010904/DTD/svg10.dtd">
<svg version="1.0" xmlns="http://www.w3.org/2000/svg"
 width="357.000000pt" height="219.000000pt" viewBox="0 0 357.000000 219.000000"
 preserveAspectRatio="xMidYMid meet">

<g transform="translate(0.000000,219.000000) scale(0.100000,-0.100000)"
fill="#000000" stroke="none">
<path d="M900 1415 c-11 -13 -1 -15 79 -15 54 0 91 -4 91 -10 0 -6 -43 -10
-109 -10 -139 0 -158 -18 -24 -22 l98 -3 5 -208 5 -209 33 -29 c35 -32 35 -35
-1 -18 -42 19 -47 43 -50 249 l-2 195 -90 3 c-96 3 -135 -2 -135 -18 0 -6 41
-10 100 -10 l100 0 0 -177 c0 -98 3 -189 6 -203 5 -24 5 -24 -8 -5 -7 11 -15
52 -18 90 l-5 70 -91 3 c-88 3 -92 2 -98 -20 -10 -40 -7 -102 9 -156 30 -99
123 -144 304 -145 176 -1 279 48 308 148 13 45 6 162 -10 172 -6 4 -46 7 -88
7 -88 1 -89 1 -89 -86 0 -95 -37 -123 -91 -69 l-29 29 0 231 0 231 -94 0 c-71
0 -97 -4 -106 -15z m229 -500 c34 -17 39 -25 17 -25 -28 0 -76 50 -76 78 1 27
1 27 15 -5 7 -17 27 -39 44 -48z"/>
<path d="M1277 1423 c-18 -18 0 -23 83 -23 53 0 90 -4 90 -10 0 -6 -40 -10
-100 -10 -60 0 -100 -4 -100 -10 0 -6 36 -10 89 -10 127 0 126 -19 0 -22 -71
-2 -104 -7 -107 -15 -3 -10 21 -13 97 -13 l101 0 1 -157 c1 -149 2 -155 14
-108 8 30 13 117 14 218 l1 167 -88 0 c-49 0 -92 -3 -95 -7z"/>
<path d="M1507 1423 c-4 -3 -7 -10 -7 -15 0 -4 129 -8 286 -8 224 0 285 3 282
13 -4 9 -70 13 -280 15 -151 1 -277 -1 -281 -5z"/>
<path d="M2121 1173 c0 -205 4 -272 17 -328 l17 -70 100 0 100 0 -2 103 -1
102 119 0 120 0 -3 -102 -3 -103 103 -3 103 -3 -3 155 c-2 85 -6 158 -11 162
-8 8 -187 12 -182 4 2 -3 -55 -5 -125 -5 -70 0 -127 2 -125 5 2 3 -35 5 -82 5
-72 -1 -87 -4 -99 -20 -12 -17 -14 -6 -14 86 0 57 -3 114 -6 127 -6 22 -5 22
95 22 83 0 101 3 101 15 0 12 -18 15 -106 15 -67 0 -103 4 -99 10 3 6 49 10
101 10 61 0 93 4 89 10 -3 6 -48 10 -101 10 -56 0 -94 4 -94 10 0 6 37 10 91
10 68 0 90 3 87 13 -3 8 -34 13 -96 15 l-92 3 1 -258z"/>
<path d="M2500 1345 l0 -85 -75 0 c-60 0 -75 -3 -75 -15 0 -12 16 -15 85 -15
50 0 85 -4 85 -10 0 -6 -35 -10 -85 -10 -69 0 -85 -3 -85 -15 0 -12 17 -15 95
-15 l95 0 2 58 c1 31 2 64 4 72 1 8 2 23 3 33 1 15 12 17 91 17 53 0 90 4 90
10 0 6 -42 10 -106 10 -67 0 -103 4 -99 10 3 6 45 10 92 10 75 0 84 2 73 15
-9 11 -35 15 -101 15 l-89 0 0 -85z"/>
<path d="M1495 1370 c-4 -7 95 -10 289 -10 191 0 296 4 296 10 0 6 -103 10
-289 10 -183 0 -292 -4 -296 -10z"/>
<path d="M1487 1333 c-4 -3 -7 -10 -7 -15 0 -4 137 -8 305 -8 264 0 305 2 305
15 0 13 -40 15 -298 15 -164 0 -302 -3 -305 -7z"/>
<path d="M2559 1298 c0 -24 0 -62 1 -85 l1 -42 -103 -3 c-89 -3 -103 -5 -106
-20 -3 -16 7 -18 107 -18 l110 0 3 88 3 87 98 3 c85 2 97 5 87 17 -9 11 -36
15 -106 15 l-94 0 -1 -42z"/>
<path d="M1699 1089 c-5 -3 -10 -75 -12 -160 l-2 -154 103 -3 102 -3 -1 143
c-1 79 -4 152 -7 163 -6 18 -16 20 -90 20 -46 0 -88 -3 -93 -6z"/>
</g>
</svg>
